<svg width="537" height="336" viewBox="0 0 537 336" fill="none" xmlns="http://www.w3.org/2000/svg">
    <path fill-rule="evenodd" clip-rule="evenodd" d="M134.902 0.664066C82.9844 -0.214841 39.4297 56.1016 39.4297 56.1016H45.8086C137.105 -30.668 224.805 55.2773 164.82 150.254C132.703 204.367 89.5859 212.285 89.5859 212.285C131.746 205.414 157.098 172.219 157.098 172.219C205.172 133.652 230.562 -1.78515 134.902 0.664066Z" fill="#5893CF"/>
    <path fill-rule="evenodd" clip-rule="evenodd" d="M11.2734 105.375C11.2734 105.375 24.4688 72.8203 32.832 66.2188L34.5898 68.8594C34.5898 68.8594 16.5508 91.7383 11.2734 105.375Z" fill="#40A5DD"/>
    <path fill-rule="evenodd" clip-rule="evenodd" d="M349.137 261.746V208.477C384.574 200.973 378.82 265.781 349.137 261.746ZM420.551 335.477C424.41 288.254 426.727 239.488 420.551 191.492H466.102C460.309 232.797 459.922 276.801 464.172 315.406C481.797 320.422 499.812 314.633 517.055 313.09L515.512 335.477C488.488 334.191 462.238 333.676 435.605 333.934L420.551 335.477ZM307.828 335.477C313.234 287.355 314.777 239.23 307.828 191.105H372.297C444.629 190.309 416.441 289.691 349.137 268.695C349.137 290.957 351.066 313.219 352.609 335.477H307.828ZM249.539 335.094C254.43 287.227 255.848 238.973 249.156 191.492H294.703C290.074 240.258 289.688 287.484 294.703 335.477L249.539 335.094Z" fill="#293778"/>
    <path d="M77.3125 319.047C77.3125 319.047 77.418 311.945 79.2969 311.219C79.2969 311.219 88.2773 304.547 89.9414 301.73C89.9414 301.73 95.9961 292.125 98.3945 290.559C98.3945 290.559 100.777 285.141 101.934 284.828L106.422 274.496C106.422 274.496 117.066 266.867 118.633 263.328C118.633 263.328 121.027 258.121 122.281 257.906C122.281 257.906 124.062 240.379 122.699 234.43C122.699 234.43 121.871 222.75 120.93 221.598C120.93 221.598 118.535 207.305 114.672 204.691C114.672 204.691 130.73 196.348 138.559 189.355C138.559 189.355 153.594 176.836 156.93 172.453L160.684 175.68C160.684 175.68 163.297 175.68 162.875 180.688C162.875 180.688 169.449 187.789 170.281 189.246L175.496 194.773C175.496 194.773 180.602 197.277 184.57 205.84C184.57 205.84 197.406 229.219 197.719 232.555C197.719 232.555 203.871 226.711 209.301 230.047C209.301 230.047 213.488 233.383 210.77 237.766L198.344 253.84C198.344 253.84 191.461 256.656 189.582 256.969C189.582 256.969 184.16 258.75 176.961 267.926L144.406 298.387L138.977 299.949C138.977 299.949 136.777 307.27 137.305 310.184C137.305 310.184 136.785 315.914 135.223 316.961C135.223 316.961 129.059 316.344 127.602 313.312L121.449 305.379C121.449 305.379 109.027 316.973 101.934 328.652C101.934 328.652 102.656 332.82 100.996 334.07C100.996 334.07 81.5859 338.875 78.1445 330.734C78.1445 330.734 77.625 324.055 76.6875 324.055C76.6875 324.055 76.2656 319.047 77.3125 319.047Z" fill="#293778"/>
    <path d="M81.1758 327.711V321.344C81.1758 321.344 83.25 317.383 86.9062 318.633C86.9062 318.633 96.6211 319.789 96.8281 323.328L97.8633 327.086C97.8633 327.086 99.3203 329.484 96.6133 330.422C96.6133 330.422 86.6055 332.406 81.1758 327.711Z" fill="#FEFEFE"/>
    <path d="M130.945 310.496L127.711 305.176C127.711 305.176 126.879 303.285 129.273 303.395C129.273 303.395 133.441 302.141 134.488 302.141C134.488 302.141 135.23 308.09 134.391 311.531C134.391 311.531 132.309 312.59 130.945 310.496Z" fill="#FEFEFE"/>
    <path d="M139.605 243.508C139.605 243.508 143.988 239.969 152.438 241.004C152.438 241.004 160.156 242.871 161.203 244.859C161.203 244.859 151.703 240.574 145.758 242.355L148.164 242.668C148.164 242.668 141.172 242.988 139.605 243.508Z" fill="#FEFEFE"/>
    <path d="M187.293 251.539C187.293 251.539 192.094 244.965 194.805 244.965C194.805 244.965 203.246 242.141 198.031 233.277C198.031 233.277 205.23 227.133 209.301 230.988C209.301 230.988 210.77 233.375 210.457 234.84C210.457 234.84 205.133 240.898 201.895 243.09C201.895 243.09 194.082 249.77 192.301 249.66C192.301 249.66 190.109 251.648 187.293 251.539Z" fill="#FEFEFE"/>
    <path d="M58.6367 108.691C58.6367 108.691 52.4844 99.1953 53.0039 94.293C53.0039 94.293 51.2227 90.8516 57.1719 82.5078C57.1719 82.5078 65.0938 70.4062 79.3945 77.1836C79.3945 77.1836 83.6797 78.3281 88.2695 87.7188C88.2695 87.7188 94.3242 90.8594 95.1562 90.7539C95.1562 90.7539 96.3008 93.3555 90.1484 96.1719L91.918 100.457C91.918 100.457 96.6133 99.5156 96.7188 98.7852L97.1406 100.867L97.1367 100.871L97.2734 101.535L97.3438 101.492L97.8633 103.898C97.8633 103.898 105.379 96.6914 110.07 91.7891C110.07 91.7891 112.266 83.9648 113.938 80.8359C113.938 80.8359 111.734 68.8398 112.266 68.4219C112.266 68.4219 117.059 64.2422 122.906 65.1836C122.906 65.1836 121.34 59.3516 118.633 59.7617V58.5117C118.633 58.5117 110.07 59.6641 110.805 66.6484C110.805 66.6484 107.566 68.2148 103.605 65.0859L100.996 57.8867C100.996 57.8867 98.293 55.9961 95.5742 60.1758C95.5742 60.1758 66.1523 66.3359 44.2383 69.6719C44.2383 69.6719 12.8203 74.4766 2.70313 70.7188C2.70313 70.7188 -1.25781 63.6172 2.1875 59.6562L8.44532 59.7617C8.44532 59.7617 1.98047 61.0156 1.35547 62.8945C1.35547 62.8945 32.0313 65.2891 46.3242 60.2812C46.3242 60.2812 90.1562 52.5625 95.5742 51.2031C95.5742 51.2031 94.8516 49.2266 93.3828 49.7461C93.3828 49.7461 51.0078 56.8398 42.7734 56.5234C42.7734 56.5234 86.4961 48.9062 92.7578 49.0117C92.7578 49.0117 94.5391 47.9766 97.7656 51.3125C97.7656 51.3125 99.2344 50.4805 99.6445 49.7461C99.6445 49.7461 99.4297 53.5039 101.309 53.5039C101.309 53.5039 101.426 55.5859 102.148 55.5859L104.965 59.6562C104.965 59.6562 117.594 55.4805 119.992 54.5391C119.992 54.5391 119.785 51.9375 119.363 51.8281L104.23 56.7305L100.789 50.4688L104.125 55.1641C104.125 55.1641 114.562 52.0352 119.57 50.8906L118.008 44.8359C118.008 44.8359 119.465 48.4961 119.883 43.6914L120.617 46.8203C120.617 46.8203 124.16 46.5078 121.656 50.2656C121.656 50.2656 122.602 56.5234 123.121 57.7773L129.793 61.0156L126.457 63.0977L130.32 63.207C130.32 63.207 125.105 66.6484 126.566 69.1523C126.566 69.1523 129.793 72.2734 133.863 69.8789C133.863 69.8789 135.859 71.7578 136.582 71.7578C136.582 71.7578 137.305 73.6445 134.91 74.7891L130.32 94.7148C130.32 94.7148 129.168 100.047 127.395 101.395L115.082 124.766C115.082 124.766 132.512 139.172 134.391 143.34L147.227 163.266L147.117 165.566L150.453 167.133C150.453 167.133 134.391 189.883 112.684 202.188C112.684 202.188 110.07 197.59 112.266 190.703C112.266 190.703 109.25 182.359 109.977 182.359C109.977 182.359 108.715 177.98 106.629 176.727L84.8242 157.32L69.2812 142.812C69.2812 142.812 66.9727 141.043 67.1875 129.773C67.1875 129.773 62.3945 128.414 63.8516 124.453C63.8516 124.453 60.5156 119.023 61.3477 118.086C61.3477 118.086 65.3203 118.086 65.8398 117.145C65.8398 117.145 69.0742 121.02 71.7852 120.805C71.7852 120.805 65.3086 115.578 64.3711 116.207C64.3711 116.207 59.793 114.121 59.2656 112.242C59.2656 112.242 63.5469 116.324 62.707 113.605L59.6758 111.617C59.6758 111.617 59.3633 108.789 58.6367 108.691Z" fill="#293778"/>
    <path d="M101.758 41.7656L117.41 40.1992V41.6875C117.41 41.6875 114.512 40.1992 113.496 42.8594C113.496 42.8594 110.758 39.6523 109.27 42.9375C109.27 42.9375 105.594 40.1211 104.574 44.0352C104.574 44.0352 102.227 41.8438 101.758 41.7656Z" fill="#293778"/>
    <path d="M120.383 41.2148C120.383 41.2148 121.242 39.1836 124.297 40.2773C124.297 40.2773 135.016 39.1055 136.738 42.7031C136.738 42.7031 138.383 46.3047 138.383 47.9453L143.703 48.9648L143.078 54.9883L140.34 56.3984C140.34 56.3984 139.789 62.5781 139.633 63.9883C139.633 63.9883 137.91 54.6758 134.469 56.8672C134.469 56.8672 131.496 56.6328 130.398 55.1445L126.254 53.0313L130.398 53.582C130.398 53.582 135.094 54.4414 132.277 50.8438C132.277 50.8438 138.773 51.8594 135.879 49.1992L137.441 48.6523C137.441 48.6523 136.27 42.1563 134.938 41.6875C134.938 41.6875 133.297 42 133.609 43.3281C133.609 43.3281 131.418 39.3398 129.305 42.4688C129.305 42.4688 127.582 40.1992 125.469 41.2969C125.469 41.2969 122.965 39.9648 120.383 41.2148Z" fill="#293778"/>
    <path d="M60.7148 106.922C60.7148 106.922 60.2461 110.68 61.8906 111.93C61.8906 111.93 70.9688 119.758 73.5469 120.461C73.5469 120.461 86.2266 121.477 97.1055 113.809C97.1055 113.809 96.7148 107.234 96.3984 107.078L98.5898 105.355V104.34L96.1641 106.141L94.8359 102.852L97.418 101.367L97.0273 100.348C97.0273 100.348 86.4609 105.984 73.3164 108.645L66.6641 110.211C66.6641 110.211 63.0625 111.148 62.8281 105.277L62.4375 105.594C62.4375 105.594 62.0469 111.305 66.5859 111.305C66.5859 111.305 90.7656 105.199 93.8945 103.402C93.8945 103.402 95.2266 104.418 95.6953 113.652C95.6953 113.652 76.7578 123.277 70.9688 117.488L62.8281 111.539C62.8281 111.539 60.4023 108.41 60.7148 106.922Z" fill="#FEFEFE"/>
    <path d="M74.8359 119.363L78.5156 108.562L79.7656 108.016L76.168 119.285L74.8359 119.363Z" fill="#FEFEFE"/>
    <path d="M88.375 116.625C88.375 116.625 87.5156 107.078 86.0273 105.746L87.5938 105.512C87.5938 105.512 89 113.492 89.4727 116.312L88.375 116.625Z" fill="#FEFEFE"/>
    <path d="M66.4648 111.773C66.4648 111.773 66.6211 116.391 80.3945 113.258C80.3945 113.258 93.4609 110.832 98.3125 105.199L98.1562 104.262C98.1562 104.262 92.0547 110.363 81.4883 111.461C81.4883 111.461 71.8633 114.668 66.4648 111.773Z" fill="#FEFEFE"/>
</svg>
